<?xml version="1.0" encoding="UTF-8"?>
<svg id="Layer_1" data-name="Layer 1" xmlns="http://www.w3.org/2000/svg" viewBox="0 0 902.856 260.118">
  <defs>
    <style>
      .cls-1 {
        fill: #050505;
      }
    </style>
  </defs>
  <polygon class="cls-1" points="692.678 190.941 4.407 190.941 59.656 246.19 747.927 246.19 692.678 190.941"/>
  <polygon class="cls-1" points="754.67 239.447 754.67 88.356 699.421 33.108 699.421 184.198 754.67 239.447"/>
  <path class="cls-1" d="m46.326,143.326V53.453h26.422l1.618,16.537v73.336h-28.04Zm57.878-46.015c0-4.791-.539-8.597-1.618-11.414-1.078-2.814-2.606-4.881-4.584-6.201-1.977-1.318-4.404-2.036-7.28-2.157-5.392-.118-9.467,1.348-12.223,4.404-2.758,3.056-4.134,7.701-4.134,13.93h-8.448c0-9.464,1.438-17.525,4.314-24.176,2.876-6.65,6.799-11.712,11.773-15.188,4.971-3.474,10.754-5.213,17.345-5.213,7.19,0,13.24,1.469,18.154,4.404,4.912,2.938,8.597,7.4,11.054,13.391,2.455,5.994,3.685,13.661,3.685,23.007v5.213h-28.04Zm0,46.015v-46.015h28.04v46.015h-28.04Z"/>
  <path class="cls-1" d="m180.056,145.483c-10.667,0-18.935-2.396-24.805-7.19-5.873-4.791-8.807-11.563-8.807-20.311,0-9.465,3.056-16.537,9.167-21.21,6.112-4.673,14.677-7.01,25.704-7.01h24.625v17.974h-14.02c-5.993,0-10.307.84-12.942,2.516-2.637,1.68-3.954,4.016-3.954,7.01,0,2.157.989,3.864,2.966,5.123,1.977,1.258,4.701,1.887,8.178,1.887s6.53-.747,9.167-2.247c2.634-1.497,4.701-3.505,6.201-6.022,1.497-2.516,2.247-5.271,2.247-8.268h7.01c0,11.984-2.517,21.271-7.549,27.861-5.033,6.591-12.762,9.886-23.187,9.886Zm24.446-2.157l-.719-19.413v-25.344c0-4.791-.421-8.987-1.258-12.582-.84-3.595-2.336-6.409-4.493-8.448-2.157-2.036-5.392-3.056-9.706-3.056-3.356,0-6.291.781-8.808,2.337-2.516,1.559-4.673,3.716-6.47,6.471l-24.445-8.089c2.036-4.432,4.822-8.448,8.358-12.043,3.533-3.595,7.878-6.471,13.032-8.628,5.151-2.157,11.144-3.235,17.975-3.235,9.347,0,17.255,1.738,23.726,5.213,6.471,3.477,11.324,8.33,14.56,14.56,3.235,6.232,4.853,13.601,4.853,22.108l-.36,50.149h-26.243Z"/>
  <path class="cls-1" d="m249.976,143.326V53.453h26.422l1.618,16.537v73.336h-28.04Zm57.878-46.015c0-4.791-.539-8.597-1.618-11.414-1.078-2.814-2.606-4.881-4.584-6.201-1.977-1.318-4.404-2.036-7.28-2.157-5.392-.118-9.467,1.348-12.223,4.404-2.758,3.056-4.134,7.701-4.134,13.93h-8.448c0-9.464,1.438-17.525,4.314-24.176,2.876-6.65,6.799-11.712,11.773-15.188,4.971-3.474,10.754-5.213,17.345-5.213,7.19,0,13.24,1.469,18.154,4.404,4.912,2.938,8.597,7.4,11.054,13.391,2.455,5.994,3.685,13.661,3.685,23.007v5.213h-28.04Zm0,46.015v-46.015h28.04v46.015h-28.04Z"/>
  <path class="cls-1" d="m370.405,41.949c-4.196,0-7.881-1.587-11.054-4.763-3.177-3.174-4.763-6.858-4.763-11.054,0-4.432,1.587-8.178,4.763-11.234,3.173-3.056,6.858-4.584,11.054-4.584,4.314,0,8.027,1.528,11.144,4.584,3.115,3.056,4.674,6.802,4.674,11.234,0,4.196-1.559,7.881-4.674,11.054-3.117,3.176-6.83,4.763-11.144,4.763Zm-14.02,101.377V53.453h28.04v89.873h-28.04Z"/>
  <path class="cls-1" d="m399.162,77v-23.547h62.551v23.547h-62.551Zm45.655,68.483c-10.667,0-18.603-2.544-23.816-7.639-5.213-5.092-7.819-12.372-7.819-21.839V25.413h28.04v83.582c0,3.595.657,6.232,1.977,7.909,1.317,1.679,3.353,2.516,6.112,2.516,1.078,0,2.336-.27,3.775-.809,1.438-.539,2.755-1.227,3.954-2.067l9.706,20.491c-2.876,2.398-6.322,4.404-10.335,6.021-4.016,1.618-7.881,2.427-11.594,2.427Z"/>
  <path class="cls-1" d="m520.096,145.483c-9.347,0-17.615-2.008-24.805-6.021-7.19-4.013-12.823-9.555-16.896-16.627-4.075-7.069-6.111-15.216-6.111-24.445,0-9.347,2.067-17.553,6.201-24.625,4.134-7.069,9.796-12.582,16.986-16.537,7.19-3.955,15.517-5.932,24.985-5.932,8.507,0,16.177,2.039,23.007,6.111,6.83,4.075,12.251,10.128,16.267,18.154,4.013,8.03,6.021,18.036,6.021,30.018h-67.584l3.056-3.415c0,4.075.837,7.67,2.516,10.785,1.677,3.118,4.014,5.482,7.01,7.1,2.994,1.618,6.35,2.427,10.066,2.427,4.432,0,8.179-.988,11.234-2.966,3.056-1.977,5.182-4.463,6.381-7.459l24.805,8.448c-2.398,5.634-5.783,10.307-10.156,14.02-4.376,3.716-9.378,6.47-15.009,8.268-5.634,1.798-11.624,2.696-17.974,2.696Zm-18.154-55.002l-2.876-3.595h40.263l-2.517,3.595c0-4.432-.899-7.967-2.696-10.605-1.797-2.634-4.016-4.522-6.65-5.662-2.637-1.137-5.275-1.707-7.909-1.707s-5.303.57-7.999,1.707c-2.696,1.14-4.974,3.028-6.83,5.662-1.859,2.637-2.786,6.173-2.786,10.605Z"/>
  <path class="cls-1" d="m613.53,145.483c-5.873,0-11.355-.871-16.446-2.606-5.095-1.736-9.499-4.193-13.211-7.369-3.716-3.173-6.471-7.038-8.268-11.594l23.007-9.706c1.556,3.117,3.713,5.423,6.471,6.92,2.755,1.5,5.572,2.247,8.448,2.247,2.994,0,5.331-.508,7.01-1.528,1.677-1.017,2.516-2.427,2.516-4.224,0-1.915-.87-3.415-2.606-4.493-1.738-1.078-4.224-2.036-7.46-2.876l-7.729-1.977c-8.389-2.157-14.829-5.721-19.323-10.695-4.494-4.971-6.741-10.754-6.741-17.345,0-9.226,3.173-16.357,9.526-21.39,6.35-5.033,15.157-7.549,26.422-7.549,6.35,0,11.953.84,16.806,2.516,4.853,1.68,8.926,4.044,12.223,7.1,3.295,3.056,5.662,6.623,7.1,10.695l-22.288,9.167c-.839-2.396-2.547-4.224-5.123-5.482-2.578-1.258-5.423-1.887-8.538-1.887-2.637,0-4.673.57-6.112,1.708-1.438,1.14-2.157,2.668-2.157,4.584,0,1.438.868,2.668,2.606,3.685,1.736,1.019,4.283,1.949,7.639,2.786l9.526,2.337c5.631,1.438,10.363,3.626,14.2,6.561,3.833,2.938,6.71,6.353,8.627,10.246,1.915,3.895,2.876,8.06,2.876,12.492,0,5.634-1.649,10.515-4.943,14.649-3.297,4.134-7.881,7.341-13.751,9.616-5.873,2.275-12.644,3.415-20.311,3.415Z"/>
  <path class="cls-1" d="m822.136,122.384c-8.037,0-14.267-1.805-18.689-5.417-4.425-3.61-6.636-8.712-6.636-15.303,0-7.131,2.302-12.46,6.907-15.981,4.605-3.521,11.059-5.282,19.367-5.282h18.554v13.543h-10.564c-4.516,0-7.766.633-9.751,1.896-1.987,1.266-2.979,3.026-2.979,5.282,0,1.625.745,2.912,2.235,3.86,1.49.948,3.542,1.422,6.162,1.422s4.92-.563,6.907-1.693c1.985-1.128,3.542-2.641,4.672-4.537,1.128-1.896,1.693-3.972,1.693-6.23h5.282c0,9.029-1.896,16.027-5.688,20.992-3.792,4.966-9.616,7.449-17.471,7.449Zm18.419-1.625l-.542-14.627v-19.095c0-3.61-.317-6.771-.948-9.48-.633-2.709-1.76-4.829-3.386-6.365-1.625-1.534-4.063-2.303-7.313-2.303-2.529,0-4.74.588-6.636,1.761-1.896,1.174-3.521,2.799-4.875,4.876l-18.418-6.094c1.534-3.339,3.633-6.365,6.297-9.074,2.662-2.709,5.936-4.876,9.819-6.501,3.881-1.625,8.397-2.438,13.543-2.438,7.042,0,13.001,1.31,17.877,3.927,4.876,2.62,8.532,6.276,10.97,10.97,2.438,4.695,3.657,10.248,3.657,16.658l-.271,37.785h-19.773Z"/>
  <path class="cls-1" d="m887.142,44.376c-3.161,0-5.938-1.196-8.329-3.589-2.394-2.391-3.589-5.167-3.589-8.329,0-3.339,1.196-6.162,3.589-8.464,2.391-2.303,5.167-3.453,8.329-3.453,3.25,0,6.048,1.151,8.397,3.453,2.347,2.302,3.521,5.125,3.521,8.464,0,3.162-1.175,5.938-3.521,8.329-2.349,2.393-5.146,3.589-8.397,3.589Zm-10.563,76.383V53.043h21.127v67.715h-21.127Z"/>
</svg>